#define noname_width 8
#define noname_height 6
static char noname_bits[] = {
 0xfe,0x2b,0x3c,0x34,0x36,0x36};
