#define noname_width 32
#define noname_height 9
static char noname_bits[] = {
 0x1c,0xfe,0x07,0x4c,0x06,0xfe,0x07,0x6c,0x0f,0x00,0x00,0x66,0x03,0x00,0x00,
 0x66,0x03,0xfe,0x07,0xa6,0x1e,0x00,0x00,0xfe,0x00,0x00,0x00,0x03,0x00,0x00,
 0x00,0x03,0x00,0x00,0x00,0x03};
