#define noname_width 129
#define noname_height 16
static char noname_bits[] = {
 0x80,0x00,0x00,0x00,0x00,0x00,0x00,0x00,0x40,0x00,0x00,0x00,0x00,0x00,0x40,
 0x00,0x00,0xc0,0x01,0x00,0x00,0x00,0x00,0x00,0x40,0x60,0x07,0x00,0x00,0x00,
 0x40,0x60,0x07,0x00,0x20,0x01,0x00,0x00,0x00,0x00,0x00,0x60,0xa0,0x0d,0x00,
 0x00,0x00,0x60,0xa0,0x0d,0x00,0x80,0x00,0x00,0x00,0x3f,0xf8,0x01,0x40,0xb0,
 0x0d,0x10,0xf8,0x01,0x40,0xb0,0x0d,0x00,0xc0,0x00,0x00,0x00,0x66,0x30,0x07,
 0x40,0x30,0x0c,0x18,0x30,0x07,0x40,0x30,0x0c,0x00,0xe0,0x00,0x00,0x00,0x63,
 0x18,0xf6,0x43,0x10,0x06,0x1c,0x18,0xf6,0x43,0x10,0x06,0x00,0xa0,0x00,0x00,
 0x00,0x63,0x18,0x06,0x40,0x18,0x0b,0x14,0x18,0x06,0x40,0x18,0x0b,0x00,0xb0,
 0xc0,0xff,0x00,0x73,0x18,0x06,0xe0,0x99,0x0f,0x16,0x18,0x06,0xe0,0x99,0x0f,
 0x00,0x90,0xc0,0xff,0x00,0x3f,0x18,0x06,0x00,0x08,0x00,0x12,0x18,0x06,0x00,
 0x08,0x00,0x00,0xf8,0x01,0x00,0x80,0x01,0x0c,0x06,0x00,0x0c,0x00,0x3f,0x0c,
 0x06,0x00,0x0c,0x00,0x00,0x8c,0x01,0x00,0x80,0x01,0x0c,0x03,0x00,0x0c,0x80,
 0x31,0x0c,0x03,0x00,0x0c,0x00,0x00,0x84,0xc1,0xff,0x80,0x01,0x8c,0x03,0x00,
 0x00,0x80,0x30,0x8c,0x03,0x00,0x00,0x80,0x01,0xcf,0x03,0x00,0xe0,0x03,0xff,
 0x00,0x00,0x00,0xe0,0x79,0xff,0x00,0x00,0x00,0x80,0x01,0x00,0x00,0x00,0x00,
 0x00,0x00,0x00,0x00,0x00,0x00,0x00,0x00,0x00,0x00,0x00,0x00,0x01,0x00,0x00,
 0x00,0x00,0x00,0x00,0x00,0x00,0x00,0x00,0x00,0x00,0x00,0x00,0x00,0x00,0x01,
 0x00,0x00,0x00,0x00,0x00,0x00,0x00,0x00,0x00,0x00,0x00,0x00,0x00,0x00,0x00,
 0x80,0x00};
