#define noname_width 73
#define noname_height 13
static char noname_bits[] = {
 0x00,0x00,0x00,0x00,0x00,0x00,0x00,0x08,0x00,0x00,0x00,0x00,0x00,0x00,0x00,
 0x00,0x08,0xec,0x00,0x00,0x00,0x00,0x00,0x00,0x00,0x00,0x0c,0xb4,0x01,0x00,
 0x10,0x00,0x00,0xe0,0x07,0x3f,0x08,0xb6,0x01,0x00,0x38,0x00,0x00,0xc0,0x0c,
 0xe6,0x08,0x86,0x01,0x00,0x24,0x00,0x00,0x60,0x0c,0xc3,0x08,0xc2,0x00,0x00,
 0x00,0x00,0x00,0x60,0x0c,0xc3,0x08,0x63,0x01,0x00,0x7e,0xf0,0x3f,0x60,0x0e,
 0xc3,0x3c,0xf3,0xf9,0x01,0x7a,0xf0,0x3f,0xe0,0x07,0xc3,0x00,0x01,0xe8,0x01,
 0x18,0x00,0x00,0x30,0x80,0xc1,0x80,0x01,0x60,0x00,0x08,0x00,0x00,0x30,0x80,
 0x61,0x80,0x01,0x20,0x00,0x6f,0xf0,0x3f,0x30,0x80,0x71,0x00,0x00,0xbc,0x01,
 0x3f,0x00,0x00,0x7c,0xe0,0x1f,0x00,0x00,0xfc,0x00};
