#define noname_width 79
#define noname_height 13
static char noname_bits[] = {
 0x04,0x00,0x00,0x00,0x00,0x00,0x00,0x00,0x02,0x00,0x0e,0x00,0x00,0x00,0x00,
 0x00,0x00,0x04,0x73,0x00,0x09,0x00,0x00,0x00,0x00,0x00,0x00,0x06,0xd9,0x00,
 0x0e,0x00,0x00,0xf8,0xc1,0x0f,0x00,0x84,0xd9,0x1c,0x0c,0x00,0x00,0x30,0x83,
 0x39,0x00,0x84,0xc1,0x18,0x06,0x00,0x00,0x18,0xc3,0x30,0x3f,0x84,0x60,0x0c,
 0x06,0x00,0x00,0x18,0xc3,0x30,0x00,0xc4,0xb0,0x0c,0x1e,0xfc,0x0f,0x98,0xc3,
 0x30,0x00,0xde,0xf8,0x3c,0x36,0xfc,0x0f,0xf8,0xc1,0x30,0x00,0x40,0x00,0x6c,
 0x33,0x00,0x00,0x0c,0x60,0x30,0x00,0x60,0x00,0x66,0x13,0x00,0x00,0x0c,0x60,
 0x18,0x00,0x60,0x00,0x26,0x1b,0xfc,0x0f,0x0c,0x60,0x1c,0x00,0x00,0x00,0x36,
 0x0e,0x00,0x00,0x1f,0xf8,0x07,0x00,0x00,0x00,0x1c};
