#define noname_width 43
#define noname_height 13
static char noname_bits[] = {
 0x80,0x00,0x00,0x00,0x80,0x00,0xc0,0x01,0x00,0x00,0xc0,0x01,0x20,0x01,0x00,
 0x00,0x20,0x01,0x80,0x40,0x00,0x00,0xc0,0x01,0xc0,0xe0,0x00,0x00,0x80,0x01,
 0xe0,0x90,0x00,0x00,0xc0,0x00,0xa0,0x00,0x00,0x00,0xc0,0x00,0xb0,0xf8,0xc1,
 0xff,0xc0,0x03,0x90,0xe8,0xc1,0xff,0xc0,0x06,0xf8,0x61,0x00,0x00,0x60,0x06,
 0x8c,0x21,0x00,0x00,0x60,0x02,0x84,0xbd,0xc1,0xff,0x60,0x03,0xcf,0xff,0x00,
 0x00,0xc0,0x01};
