#define noname_width 461
#define noname_height 34
static char noname_bits[] = {
 0x01,0x00,0x00,0x00,0x00,0x00,0x00,0x00,0x00,0x00,0x00,0x00,0x00,0x00,0x00,
 0x00,0x00,0x00,0x00,0x00,0x00,0x00,0x00,0x00,0x00,0x00,0x00,0x00,0x00,0x00,
 0x00,0x00,0x00,0x00,0x00,0x00,0x00,0x00,0x00,0x00,0x00,0x00,0x00,0x00,0x00,
 0x00,0x00,0x00,0x00,0x00,0x00,0x00,0x00,0x00,0x00,0x00,0x00,0x10,0x01,0x00,
 0x00,0x00,0x00,0x00,0x00,0x00,0x00,0x00,0x00,0x00,0x00,0x00,0x00,0x00,0x00,
 0x00,0x00,0x00,0x00,0x00,0x00,0x00,0x00,0x00,0x00,0x00,0x00,0x00,0x00,0x00,
 0x00,0x00,0x00,0x00,0x00,0x00,0x00,0x00,0x00,0x00,0x00,0x00,0x00,0x00,0x00,
 0x00,0x00,0x00,0x00,0x00,0x00,0x00,0x00,0x00,0x00,0x10,0x01,0x78,0x01,0x00,
 0x00,0xc0,0x00,0x00,0x0e,0xb8,0x03,0x00,0x00,0x00,0xf0,0x03,0xe0,0x00,0x00,
 0x00,0xf8,0x03,0x38,0x38,0x00,0x00,0x00,0x00,0x00,0x00,0x3f,0x00,0x18,0x00,
 0x1c,0xc0,0x1f,0x00,0x00,0x03,0x00,0x00,0x1c,0x00,0x00,0x00,0xc0,0x1f,0x00,
 0x00,0xe0,0x0f,0x00,0x80,0x39,0x00,0x00,0x10,0x01,0x8c,0x01,0x00,0x00,0xc0,
 0x00,0x10,0x0f,0x30,0x03,0x00,0x00,0x00,0xc0,0x0e,0xc0,0x00,0x00,0x08,0x30,
 0x06,0x30,0x30,0x00,0x00,0x00,0x00,0x00,0x00,0xec,0x00,0x18,0x00,0x18,0x80,
 0x31,0x00,0x00,0x02,0x00,0x00,0x18,0x00,0x00,0x00,0x00,0x33,0x80,0x00,0xc0,
 0x18,0x00,0x00,0x31,0x00,0x00,0x10,0x01,0x06,0x01,0x00,0x00,0xc0,0x00,0x18,
 0x03,0x30,0x03,0x00,0x00,0x00,0xc0,0x18,0xc0,0x00,0x00,0x0c,0x30,0x0c,0x30,
 0x30,0x00,0x00,0x00,0x00,0x00,0x00,0x8c,0x01,0x00,0x00,0x18,0x80,0x61,0x00,
 0x00,0x02,0x00,0x00,0x18,0x00,0x00,0x00,0x00,0x63,0xc0,0x00,0xc0,0x30,0x00,
 0x00,0x31,0x00,0x00,0x10,0x01,0x06,0x01,0x00,0x10,0xe0,0x01,0x18,0x03,0x30,
 0x03,0x00,0x00,0x00,0xc0,0x18,0xc0,0x00,0x00,0x0c,0x30,0x0c,0x30,0x30,0x00,
 0x00,0x00,0x00,0x00,0x00,0x8c,0x01,0x00,0x00,0x18,0x80,0x61,0x00,0x00,0x02,
 0x00,0x00,0x18,0x00,0x00,0x00,0x00,0x63,0xc0,0x00,0xc0,0x30,0x00,0x00,0x31,
 0x00,0x00,0x10,0x01,0x03,0xf8,0x3c,0x3f,0xa0,0xe1,0xbf,0xe7,0x31,0x3b,0x00,
 0x00,0x00,0xc0,0x8e,0xcf,0xc7,0xfb,0x1e,0x30,0xe7,0xf1,0xf1,0x01,0x00,0x00,
 0x00,0x00,0x00,0xec,0x78,0x9c,0xf7,0xf9,0x80,0x39,0xbe,0xef,0xe3,0xfd,0xef,
 0xd9,0x3d,0x1f,0x00,0x00,0x33,0xef,0x79,0xc0,0x9c,0xef,0xf1,0x31,0xef,0x0e,
 0x10,0x01,0x03,0xf0,0xe6,0x09,0xa0,0x61,0x1a,0x63,0x33,0x0f,0x00,0x00,0x00,
 0xc0,0xcf,0xc8,0x6c,0xf6,0x0c,0xf0,0x67,0x33,0x33,0x03,0x00,0x00,0x00,0x00,
 0x00,0xfc,0xd8,0xd8,0x3c,0x99,0x80,0x3f,0x23,0x3f,0x62,0xdb,0x36,0x7b,0x6c,
 0x1e,0x00,0x00,0x9f,0xd9,0xcc,0xc0,0x1f,0x6f,0x1b,0xb1,0xd9,0x04,0x10,0x01,
 0xc3,0x33,0xfe,0x09,0xf0,0xe3,0x19,0xc3,0x33,0x07,0x00,0x00,0x00,0xc0,0xcc,
 0xd8,0xe8,0x37,0x0c,0x30,0xcc,0x33,0x32,0x02,0x00,0x00,0x00,0x00,0x00,0xcc,
 0xf0,0xd8,0xff,0x98,0x80,0x61,0x63,0x33,0xc2,0xdb,0xf3,0x3b,0x78,0x06,0x00,
 0x00,0x83,0xdf,0xfc,0xc0,0x30,0xc3,0x1b,0xb1,0xdf,0x06,0x10,0x01,0x86,0x31,
 0x06,0x0f,0x10,0xe3,0x5b,0x63,0x33,0x0f,0x00,0x00,0x00,0xc0,0xcc,0xd8,0x68,
 0x30,0x2c,0x30,0x6c,0x33,0x32,0x02,0x00,0x00,0x00,0x00,0x00,0xcc,0xd8,0xd8,
 0xf0,0x99,0x80,0x61,0x63,0x33,0x62,0xf3,0x33,0x78,0x6c,0x06,0x00,0x00,0x83,
 0xc1,0x0e,0xc0,0x30,0x63,0x1b,0xb1,0x81,0x03,0x10,0x01,0x86,0x31,0x46,0x01,
 0x18,0x27,0x5a,0x33,0x37,0x1f,0x00,0x00,0x00,0xc0,0xec,0xc8,0x6c,0x34,0x2c,
 0x30,0x3c,0x37,0x33,0x03,0x00,0x00,0x00,0x00,0x00,0xcc,0xce,0xd9,0x18,0x99,
 0x80,0x61,0x23,0x33,0x32,0xb7,0x33,0xfa,0xe6,0x06,0x00,0x00,0x83,0xd1,0x8e,
 0xc0,0x30,0x33,0x1f,0xb1,0x91,0x03,0x10,0x01,0xdc,0x79,0x3c,0x1f,0x9c,0xef,
 0xfb,0xe7,0xff,0x3f,0x00,0x00,0x00,0xf0,0xb9,0xcf,0xc7,0x7b,0x3c,0xf8,0xe7,
 0xf7,0xf1,0x01,0x00,0x00,0x00,0x00,0x00,0x9f,0xfb,0x99,0xf7,0xfd,0xc1,0x3f,
 0xbe,0xe7,0xe7,0x37,0xe1,0xfd,0xfd,0x0f,0x00,0xc0,0x07,0xcf,0x7b,0xe0,0x9f,
 0xe7,0xf7,0x7b,0x0f,0x01,0x10,0x01,0x70,0x00,0x80,0x31,0x00,0x00,0x00,0x00,
 0x00,0x00,0x00,0x00,0x00,0x00,0x30,0x00,0x00,0x00,0x00,0x00,0x00,0x00,0x00,
 0x00,0x00,0x00,0x00,0x00,0x00,0x00,0x03,0x18,0x00,0x00,0x00,0x00,0x00,0x00,
 0x00,0x00,0x00,0x00,0x00,0x00,0x00,0x00,0x00,0x00,0x00,0x00,0x00,0x00,0x00,
 0x00,0x00,0x01,0x10,0x01,0x00,0x00,0x80,0x31,0x00,0x00,0x00,0x00,0x00,0x00,
 0x00,0x00,0x00,0x00,0x00,0x00,0x00,0x00,0x00,0x00,0x00,0x00,0x00,0x00,0x00,
 0x00,0x00,0x00,0x00,0x00,0x00,0x1e,0x00,0x00,0x00,0x00,0x00,0x00,0x00,0x00,
 0x00,0x00,0x00,0x00,0x00,0x00,0x00,0x00,0x00,0x00,0x00,0x00,0x00,0x00,0xe0,
 0x01,0x10,0x01,0x00,0x00,0x00,0x1f,0x00,0x00,0x00,0x00,0x00,0x00,0x00,0x00,
 0x00,0x00,0x00,0x00,0x00,0x00,0x00,0x00,0x00,0x00,0x00,0x00,0x00,0x00,0x00,
 0x00,0x00,0x00,0x00,0x0e,0x00,0x00,0x00,0x00,0x00,0x00,0x00,0x00,0x00,0x00,
 0x00,0x00,0x00,0x00,0x00,0x00,0x00,0x00,0x00,0x00,0x00,0x00,0xe0,0x00,0x10,
 0x01,0x00,0x00,0x00,0x00,0x00,0x00,0x00,0x00,0x00,0x00,0x00,0x00,0x00,0x00,
 0x00,0x00,0x00,0x00,0x00,0x00,0x00,0x00,0x00,0x00,0x00,0x00,0x00,0x00,0x00,
 0x00,0x00,0x00,0x00,0x00,0x00,0x00,0x00,0x00,0x00,0x00,0x00,0x00,0x00,0x00,
 0x00,0x00,0x00,0x00,0x00,0x00,0x00,0x00,0x00,0x00,0x00,0x00,0x10,0x01,0x00,
 0x00,0x00,0x00,0x00,0x00,0x00,0x00,0x00,0x00,0x00,0x00,0x00,0x00,0x00,0x00,
 0x00,0x00,0x00,0x00,0x00,0x00,0x00,0x00,0x00,0x00,0x00,0x00,0x00,0x00,0x00,
 0x00,0x00,0x00,0x00,0x00,0x00,0x00,0x00,0x00,0x00,0x00,0x00,0x00,0x00,0x00,
 0x00,0x00,0x00,0x00,0x00,0x00,0x00,0x00,0x00,0x00,0x10,0x01,0x00,0x00,0x00,
 0x00,0x00,0x00,0x00,0x00,0x00,0x00,0x00,0x00,0x00,0x00,0x00,0x00,0x00,0x00,
 0x00,0x00,0x00,0x00,0x00,0x00,0x00,0x00,0x00,0x00,0x00,0x00,0x00,0x00,0x00,
 0x00,0x00,0x00,0x00,0x00,0x00,0x00,0x00,0x00,0x00,0x00,0x00,0x00,0x00,0x00,
 0x00,0x00,0x00,0x00,0x00,0x00,0x00,0x00,0x10,0x01,0x00,0x00,0x00,0x00,0x00,
 0x00,0x00,0x00,0x00,0x00,0x00,0x00,0x00,0x00,0x00,0x00,0x00,0x00,0x00,0x00,
 0x00,0x00,0x00,0x00,0x00,0x00,0x00,0x00,0x00,0x00,0x00,0x00,0x00,0x00,0x00,
 0x00,0x00,0x00,0x00,0x00,0x00,0x00,0x00,0x00,0x00,0x00,0x00,0x00,0x00,0x00,
 0x00,0x00,0x00,0x00,0x00,0x00,0x10,0x01,0x3f,0x00,0x00,0xc0,0x1f,0xc0,0x00,
 0x07,0x00,0x00,0x70,0x07,0x00,0xf0,0xf0,0x00,0x80,0x01,0x06,0xfe,0x00,0x00,
 0x18,0x00,0x00,0x03,0x00,0x00,0x00,0xff,0x00,0x03,0xe0,0x0f,0x00,0x00,0x00,
 0x00,0x00,0x00,0x00,0x00,0x00,0x00,0x00,0x00,0x5e,0x00,0x00,0x00,0x7f,0x00,
 0x00,0x00,0x00,0x00,0x10,0x01,0xec,0x00,0x00,0x80,0x31,0xc0,0x00,0x06,0x02,
 0x00,0x60,0x06,0x00,0xc0,0x70,0x00,0x80,0x01,0x06,0x8c,0x01,0x00,0x10,0x00,
 0x00,0x03,0x00,0x00,0x00,0xcc,0x00,0x03,0xc0,0x18,0x00,0x00,0x00,0x00,0x00,
 0x00,0x00,0x00,0x00,0x00,0x00,0x00,0x63,0x00,0x00,0x00,0xc6,0x00,0x00,0x00,
 0x00,0x00,0x10,0x01,0x8c,0x01,0x00,0x80,0x61,0x00,0x00,0x06,0x03,0x00,0x60,
 0x06,0x00,0xc0,0x71,0x00,0x00,0x00,0x00,0x0c,0x03,0x00,0x10,0x00,0x00,0x00,
 0x00,0x00,0x00,0x8c,0x01,0x00,0xc0,0x30,0x00,0x00,0x00,0x00,0x00,0x00,0x00,
 0x00,0x00,0x00,0x00,0x80,0x41,0x00,0x00,0x00,0x86,0x01,0x00,0x00,0x00,0x00,
 0x10,0x01,0x8c,0x01,0x00,0x80,0x61,0x00,0x40,0x06,0x03,0x00,0x60,0x06,0x00,
 0xc0,0x79,0x00,0x00,0x00,0x00,0x0c,0x03,0x00,0x10,0x00,0x00,0x00,0x00,0x00,
 0x00,0x2c,0x01,0x00,0xc0,0x30,0x00,0x00,0x00,0x00,0x00,0x00,0x00,0x00,0x00,
 0x00,0x00,0x80,0x41,0x00,0x00,0x02,0x86,0x01,0x00,0x00,0x00,0x00,0x10,0x01,
 0xec,0xf0,0xfd,0x80,0xb9,0xef,0xfc,0xbe,0xf7,0xbf,0x67,0x06,0x00,0xc0,0x69,
 0x3c,0xfe,0x79,0x07,0xcc,0x7d,0x3e,0x1f,0xff,0xff,0xf3,0x3f,0x00,0x00,0x2c,
 0xbe,0xf3,0xc1,0x9c,0x7f,0xf3,0xf3,0xf3,0x3e,0x00,0x00,0x00,0x00,0x00,0x00,
 0xc0,0x00,0xbe,0xe7,0x07,0xe6,0x6e,0xfe,0xcf,0x07,0x00,0x10,0x01,0xfc,0x18,
 0x99,0x80,0x3f,0xcf,0x26,0x26,0x63,0xdb,0x6c,0x06,0x00,0xc0,0x6b,0x6c,0xb3,
 0xcd,0x06,0xfc,0x79,0xa3,0x91,0xd1,0x36,0x9b,0x33,0x00,0x00,0x3c,0x3c,0x9b,
 0xc1,0x1f,0x6f,0x62,0x62,0x9a,0x3d,0x00,0x00,0x00,0x00,0x00,0x00,0xc0,0x00,
 0xfc,0x3c,0x01,0xfe,0x4c,0xbc,0xc9,0x04,0x00,0x10,0x01,0xcc,0x18,0x9b,0x80,
 0x61,0xc3,0x26,0x26,0x63,0xcf,0x6f,0x06,0x00,0x40,0x6f,0x78,0x83,0xfd,0x06,
 0x0c,0x1b,0xe3,0x91,0xf1,0x1e,0x1b,0x1a,0x00,0x00,0x2c,0x0d,0x1b,0xc0,0x30,
 0x63,0x62,0x62,0xfa,0x0d,0x00,0x00,0x00,0x00,0x00,0x00,0xc0,0xf0,0xcc,0x3f,
 0x01,0x86,0x4d,0x8c,0xc9,0x03,0x00,0x10,0x01,0xcc,0x18,0x9b,0x80,0x61,0xc3,
 0x3c,0x26,0xcb,0xcf,0x60,0x06,0x00,0x40,0x67,0x6c,0x83,0x0d,0x06,0x0c,0x1b,
 0xe3,0x91,0xb1,0x1f,0x1b,0x2c,0x00,0x00,0x0c,0x0d,0x1b,0xc0,0x30,0x63,0x62,
 0x62,0x1a,0x0c,0x00,0x00,0x00,0x00,0x00,0x00,0x80,0x61,0xcc,0xe0,0x01,0x86,
 0x4d,0x8c,0xc9,0x07,0x00,0x10,0x01,0xcc,0x1a,0x99,0x80,0x61,0xc3,0x04,0x26,
 0xcb,0xce,0x68,0x06,0x00,0x40,0x66,0xe6,0xa3,0x8d,0x06,0x0c,0x1b,0xa3,0x91,
 0x91,0x1d,0x1b,0x2d,0x00,0x00,0x8c,0x0d,0x1b,0xc1,0x30,0x63,0x63,0x62,0x1a,
 0x0d,0x00,0x00,0x00,0x00,0x00,0x00,0x80,0x61,0xcc,0x28,0x00,0x86,0x6d,0x8c,
 0x49,0x04,0x00,0x10,0x01,0x9f,0xf3,0xfd,0xc1,0xbf,0xe7,0x7d,0x7f,0xcf,0x84,
 0xf7,0x0f,0x00,0xf0,0xfa,0xfc,0xde,0x7b,0x06,0xfe,0x3d,0x3e,0x3f,0x9f,0x89,
 0xf7,0x3e,0x00,0x00,0xff,0x9e,0xf7,0xe0,0x9f,0xe7,0xf7,0xf7,0xf7,0x1e,0x00,
 0x00,0x00,0x00,0x00,0x00,0x00,0x77,0x9e,0xe7,0x03,0xff,0xfc,0xde,0xdf,0x07,
 0x00,0x10,0x01,0x00,0x03,0x00,0x00,0x00,0x00,0xc6,0x00,0x00,0x00,0x00,0x00,
 0x00,0x00,0x00,0x00,0x00,0x00,0x06,0x00,0x00,0x00,0x00,0x00,0x00,0x00,0x00,
 0x00,0x00,0x00,0x00,0x00,0x00,0x00,0x00,0x00,0x00,0x00,0x00,0x00,0x00,0x00,
 0x00,0x00,0x00,0x00,0x1c,0x00,0x30,0x06,0x00,0x00,0x00,0x00,0x00,0x00,0x10,
 0x01,0x00,0x00,0x00,0x00,0x00,0x00,0xc6,0x00,0x00,0x00,0x00,0x00,0x00,0x00,
 0x00,0x00,0x00,0x80,0x07,0x00,0x00,0x00,0x00,0x00,0x00,0x00,0x00,0x00,0x00,
 0x00,0x00,0x00,0x00,0x00,0x00,0x00,0x00,0x00,0x00,0x00,0x00,0x00,0x00,0x00,
 0x00,0x00,0x00,0x00,0x30,0x06,0x00,0x00,0x00,0x00,0x00,0x00,0x10,0x01,0x00,
 0x00,0x00,0x00,0x00,0x00,0x7c,0x00,0x00,0x00,0x00,0x00,0x00,0x00,0x00,0x00,
 0x00,0x80,0x03,0x00,0x00,0x00,0x00,0x00,0x00,0x00,0x00,0x00,0x00,0x00,0x00,
 0x00,0x00,0x00,0x00,0x00,0x00,0x00,0x00,0x00,0x00,0x00,0x00,0x00,0x00,0x00,
 0x00,0x00,0xe0,0x03,0x00,0x00,0x00,0x00,0x00,0x00,0x10,0x01,0x00,0x00,0x00,
 0x00,0x00,0x00,0x00,0x00,0x00,0x00,0x00,0x00,0x00,0x00,0x00,0x00,0x00,0x00,
 0x00,0x00,0x00,0x00,0x00,0x00,0x00,0x00,0x00,0x00,0x00,0x00,0x00,0x00,0x00,
 0x00,0x00,0x00,0x00,0x00,0x00,0x00,0x00,0x00,0x00,0x00,0x00,0x00,0x00,0x00,
 0x00,0x00,0x00,0x00,0x00,0x00,0x00,0x00,0x10,0x01,0x00,0x00,0x00,0x00,0x00,
 0x00,0x00,0x00,0x00,0x00,0x00,0x00,0x00,0x00,0x00,0x00,0x00,0x00,0x00,0x00,
 0x00,0x00,0x00,0x00,0x00,0x00,0x00,0x00,0x00,0x00,0x00,0x00,0x00,0x00,0x00,
 0x00,0x00,0x00,0x00,0x00,0x00,0x00,0x00,0x00,0x00,0x00,0x00,0x00,0x00,0x00,
 0x00,0x00,0x00,0x00,0x00,0x00,0x10};
